<?xml version="1.0" encoding="utf-8"?>
<!-- Generator: Adobe Illustrator 16.0.0, SVG Export Plug-In . SVG Version: 6.00 Build 0)  -->
<!DOCTYPE svg PUBLIC "-//W3C//DTD SVG 1.1//EN" "http://www.w3.org/Graphics/SVG/1.1/DTD/svg11.dtd">
<svg version="1.1" id="Layer_1" xmlns="http://www.w3.org/2000/svg" xmlns:xlink="http://www.w3.org/1999/xlink" x="0px" y="0px"
	 width="124.138px" height="17.829px" viewBox="0 0 124.138 17.829" enable-background="new 0 0 124.138 17.829"
	 xml:space="preserve">
<g>
	<g>
		<path fill="#FFD600" d="M0,17.77V0h2.539v15.865h4.442v1.904H0z"/>
		<path fill="#FFD600" d="M10.263,17.948c-0.708,0-1.308-0.306-1.8-0.917c-0.493-0.612-0.739-1.301-0.739-2.067
			c0-0.615,0.104-1.174,0.313-1.677c0.208-0.502,0.428-0.903,0.659-1.204c0.232-0.301,0.618-0.611,1.16-0.933
			c0.542-0.32,0.952-0.54,1.229-0.659c0.278-0.119,0.76-0.313,1.448-0.585c0.119-0.046,0.208-0.083,0.268-0.109V8.885
			c0-0.641-0.089-1.139-0.268-1.492c-0.178-0.354-0.512-0.53-1.001-0.53c-0.436,0-0.749,0.15-0.937,0.451s-0.296,0.716-0.322,1.244
			c-0.007,0.073-0.01,0.182-0.01,0.327H7.725C7.738,7.669,8.078,6.7,8.746,5.979c0.667-0.721,1.596-1.081,2.786-1.081
			c1.183,0,2.114,0.365,2.792,1.096c0.677,0.73,1.016,1.694,1.016,2.891v5.712c0,1.322,0.109,2.38,0.327,3.173h-2.528l-0.337-1.904
			c-0.132,0.265-0.239,0.47-0.322,0.615c-0.083,0.146-0.203,0.325-0.362,0.54s-0.317,0.381-0.476,0.496
			c-0.158,0.116-0.357,0.217-0.595,0.303S10.547,17.948,10.263,17.948z M11.532,15.865c0.179,0,0.352-0.053,0.521-0.158
			c0.168-0.105,0.296-0.208,0.381-0.308c0.086-0.098,0.192-0.231,0.317-0.396c0.02-0.033,0.036-0.056,0.049-0.069v-3.511
			c-0.105,0.073-0.281,0.186-0.525,0.338s-0.439,0.275-0.585,0.372c-0.146,0.096-0.321,0.228-0.525,0.396
			c-0.205,0.168-0.364,0.33-0.476,0.485s-0.212,0.346-0.297,0.57c-0.086,0.225-0.129,0.46-0.129,0.704
			C10.263,15.34,10.686,15.865,11.532,15.865z"/>
		<path fill="#FFD600" d="M17.521,17.77V5.077h2.539v1.438c0.905-1.077,1.96-1.616,3.163-1.616c0.608,0,1.054,0.134,1.339,0.401
			c0.284,0.269,0.476,0.693,0.575,1.274c0.417-0.549,0.866-0.965,1.349-1.249s1.091-0.427,1.825-0.427
			c0.211,0,0.401,0.021,0.57,0.065c0.168,0.042,0.315,0.094,0.441,0.154c0.125,0.059,0.236,0.149,0.333,0.271
			c0.096,0.122,0.175,0.234,0.238,0.337s0.116,0.25,0.159,0.441s0.074,0.351,0.094,0.476c0.02,0.126,0.036,0.312,0.049,0.556
			s0.02,0.437,0.02,0.575s0,0.347,0,0.625c0,0.059,0,0.105,0,0.139v9.231h-2.539V8.508c0-0.033,0-0.086,0-0.158
			c0-0.219-0.003-0.386-0.01-0.506c-0.007-0.119-0.028-0.255-0.064-0.411c-0.037-0.155-0.101-0.27-0.193-0.343
			c-0.093-0.072-0.215-0.108-0.367-0.108c-0.258,0-0.516,0.051-0.773,0.153s-0.458,0.201-0.6,0.298
			c-0.142,0.096-0.318,0.229-0.531,0.402v9.935h-2.538V8.558c0-0.04,0-0.1,0-0.178c0-0.186,0-0.324,0-0.416
			c0-0.094-0.012-0.215-0.035-0.363c-0.023-0.148-0.055-0.259-0.094-0.332c-0.04-0.072-0.103-0.139-0.188-0.198
			s-0.192-0.089-0.317-0.089c-0.622,0-1.256,0.268-1.904,0.803v9.985H17.521z"/>
		<path fill="#FFD600" d="M32.544,3.173V0.635h2.539v2.538H32.544z M32.544,17.77V5.077h2.539V17.77H32.544z"/>
		<path fill="#FFD600" d="M37.512,17.77V5.077h2.539v1.368c0.377-0.344,0.684-0.606,0.922-0.788
			c0.238-0.182,0.567-0.354,0.987-0.516s0.868-0.243,1.344-0.243c0.542,0,0.981,0.198,1.319,0.595
			c0.337,0.397,0.505,0.883,0.505,1.458V17.77h-2.538V8.25c0-0.442-0.063-0.765-0.188-0.967c-0.126-0.201-0.38-0.302-0.764-0.302
			c-0.218,0-0.435,0.044-0.649,0.134c-0.215,0.089-0.375,0.172-0.481,0.247c-0.106,0.076-0.258,0.197-0.456,0.362V17.77H37.512z"/>
		<path fill="#FFD600" d="M49.56,17.948c-0.708,0-1.308-0.306-1.8-0.917c-0.493-0.612-0.739-1.301-0.739-2.067
			c0-0.615,0.104-1.174,0.313-1.677c0.208-0.502,0.428-0.903,0.659-1.204s0.618-0.611,1.16-0.933c0.542-0.32,0.952-0.54,1.229-0.659
			c0.278-0.119,0.76-0.313,1.448-0.585c0.119-0.046,0.208-0.083,0.268-0.109V8.885c0-0.641-0.089-1.139-0.268-1.492
			c-0.178-0.354-0.512-0.53-1.001-0.53c-0.436,0-0.749,0.15-0.937,0.451s-0.296,0.716-0.322,1.244
			c-0.007,0.073-0.01,0.182-0.01,0.327h-2.539c0.013-1.216,0.354-2.185,1.021-2.905c0.667-0.721,1.596-1.081,2.786-1.081
			c1.183,0,2.114,0.365,2.792,1.096c0.677,0.73,1.016,1.694,1.016,2.891v5.712c0,1.322,0.109,2.38,0.327,3.173h-2.528l-0.337-1.904
			c-0.132,0.265-0.239,0.47-0.322,0.615c-0.083,0.146-0.203,0.325-0.362,0.54s-0.317,0.381-0.476,0.496
			c-0.158,0.116-0.357,0.217-0.595,0.303S49.844,17.948,49.56,17.948z M50.829,15.865c0.179,0,0.352-0.053,0.521-0.158
			s0.296-0.208,0.382-0.308c0.086-0.098,0.192-0.231,0.317-0.396c0.02-0.033,0.036-0.056,0.049-0.069v-3.511
			c-0.105,0.073-0.281,0.186-0.525,0.338s-0.439,0.275-0.585,0.372c-0.146,0.096-0.321,0.228-0.525,0.396
			c-0.205,0.168-0.363,0.33-0.476,0.485c-0.112,0.155-0.212,0.346-0.297,0.57c-0.086,0.225-0.129,0.46-0.129,0.704
			C49.56,15.34,49.983,15.865,50.829,15.865z"/>
		<path fill="#FFD600" d="M60.001,17.948c-0.998,0-1.724-0.255-2.176-0.764c-0.453-0.508-0.686-1.279-0.699-2.311V6.981h-1.269
			V5.077h1.269V0.635h2.539v4.442h1.904v1.904h-1.904v7.407c0,0.509,0.069,0.882,0.208,1.12c0.139,0.238,0.42,0.356,0.843,0.356
			c0.185,0,0.47-0.032,0.853-0.099v2.063C60.934,17.908,60.412,17.948,60.001,17.948z"/>
		<path fill="#FFD600" d="M66.942,17.948c-0.615,0-1.148-0.106-1.602-0.317c-0.453-0.212-0.813-0.487-1.08-0.828
			s-0.484-0.776-0.65-1.309c-0.164-0.532-0.279-1.064-0.342-1.597s-0.1-1.152-0.113-1.859c-0.02-0.556-0.02-1.11,0-1.666
			c0.02-0.661,0.064-1.247,0.133-1.76c0.07-0.513,0.191-1.01,0.363-1.492s0.395-0.88,0.668-1.189
			c0.275-0.312,0.635-0.561,1.082-0.749c0.445-0.188,0.967-0.283,1.561-0.283c0.543,0,1.02,0.071,1.434,0.214
			c0.412,0.143,0.756,0.356,1.031,0.645c0.273,0.287,0.502,0.607,0.684,0.957s0.318,0.775,0.412,1.273
			c0.092,0.499,0.156,0.99,0.193,1.473c0.035,0.482,0.055,1.038,0.055,1.666v0.297h-5.078v0.635c0,0.086,0,0.222,0,0.407
			c-0.012,0.245-0.014,0.497-0.004,0.758c0.01,0.262,0.021,0.518,0.035,0.769c0.012,0.252,0.049,0.491,0.107,0.72
			c0.061,0.228,0.133,0.428,0.219,0.6s0.207,0.308,0.361,0.406c0.156,0.1,0.34,0.148,0.551,0.148c0.266,0,0.482-0.051,0.654-0.153
			s0.299-0.256,0.383-0.461c0.082-0.205,0.141-0.41,0.174-0.615c0.033-0.204,0.053-0.462,0.059-0.773v-0.535h2.52v0.506
			c-0.061,1.355-0.395,2.381-1.002,3.074C69.14,17.601,68.206,17.948,66.942,17.948z M65.692,10.154h2.52V9.391
			c-0.006-0.337-0.027-0.631-0.059-0.883c-0.033-0.251-0.092-0.502-0.174-0.753c-0.084-0.252-0.211-0.443-0.383-0.574
			c-0.172-0.134-0.383-0.199-0.635-0.199c-0.258,0-0.475,0.07-0.648,0.208c-0.176,0.139-0.305,0.339-0.387,0.6
			c-0.084,0.263-0.141,0.518-0.174,0.769S65.7,9.109,65.692,9.46V10.154z"/>
		<path fill="#FFD600" d="M76.839,17.77V0h2.539v7.615h4.441V0h2.539v17.77h-2.539V9.52h-4.441v8.25H76.839z"/>
		<path fill="#FFD600" d="M95.282,16.758c-0.588,0.794-1.563,1.19-2.926,1.19c-1.361,0-2.336-0.396-2.924-1.19
			c-0.59-0.793-0.883-1.937-0.883-3.431V9.52c0-1.494,0.293-2.638,0.883-3.431c0.588-0.794,1.563-1.19,2.924-1.19
			c1.363,0,2.338,0.396,2.926,1.19c0.588,0.793,0.883,1.937,0.883,3.431v3.808C96.165,14.821,95.87,15.965,95.282,16.758z
			 M91.886,15.786c0.137,0.053,0.293,0.079,0.471,0.079c0.18,0,0.336-0.026,0.473-0.079c0.135-0.053,0.248-0.117,0.336-0.193
			c0.09-0.076,0.164-0.188,0.223-0.337c0.061-0.148,0.107-0.279,0.141-0.392c0.031-0.112,0.055-0.274,0.068-0.486
			c0.014-0.211,0.021-0.378,0.025-0.5c0.002-0.123,0.004-0.306,0.004-0.551V9.52c0-0.244-0.002-0.428-0.004-0.551
			c-0.004-0.122-0.012-0.289-0.025-0.5c-0.014-0.212-0.037-0.374-0.068-0.486c-0.033-0.112-0.08-0.243-0.141-0.392
			c-0.059-0.148-0.133-0.261-0.223-0.336c-0.088-0.077-0.201-0.141-0.336-0.194c-0.137-0.053-0.293-0.079-0.473-0.079
			c-0.178,0-0.334,0.026-0.471,0.079c-0.135,0.054-0.248,0.117-0.336,0.194c-0.09,0.075-0.164,0.188-0.225,0.336
			c-0.059,0.148-0.105,0.279-0.139,0.392s-0.055,0.274-0.068,0.486c-0.014,0.211-0.021,0.378-0.025,0.5
			c-0.004,0.123-0.004,0.307-0.004,0.551v3.808c0,0.245,0,0.428,0.004,0.551c0.004,0.122,0.012,0.289,0.025,0.5
			c0.014,0.212,0.035,0.374,0.068,0.486s0.08,0.243,0.139,0.392c0.061,0.148,0.135,0.261,0.225,0.337
			C91.638,15.669,91.751,15.733,91.886,15.786z"/>
		<path fill="#FFD600" d="M100.062,17.948c-0.555,0-1-0.197-1.338-0.59c-0.338-0.394-0.506-0.881-0.506-1.463V5.077h2.539v10.045
			c0,0.265,0.08,0.479,0.242,0.645s0.371,0.248,0.629,0.248c0.141,0,0.275-0.017,0.408-0.05c0.131-0.033,0.262-0.091,0.391-0.174
			c0.129-0.081,0.23-0.148,0.303-0.198s0.178-0.133,0.313-0.253c0.135-0.119,0.219-0.191,0.252-0.218V5.077h2.539V17.77h-2.539
			v-1.368c-0.25,0.218-0.434,0.377-0.549,0.476c-0.117,0.1-0.293,0.233-0.531,0.401c-0.238,0.169-0.447,0.291-0.629,0.367
			s-0.408,0.146-0.68,0.208C100.634,17.917,100.353,17.948,100.062,17.948z"/>
		<path fill="#FFD600" d="M111.366,17.948c-1.045,0-1.883-0.311-2.514-0.933c-0.631-0.621-1.063-1.427-1.293-2.419l1.902-0.635
			c0.457,1.27,1.092,1.903,1.904,1.903c0.404,0,0.715-0.11,0.938-0.332c0.221-0.221,0.332-0.533,0.332-0.937
			c0-0.589-0.211-1.078-0.635-1.467l-2.539-1.905c-0.283-0.191-0.521-0.371-0.713-0.54s-0.387-0.375-0.586-0.62
			c-0.197-0.244-0.348-0.519-0.451-0.822c-0.102-0.305-0.152-0.635-0.152-0.992c0-1.084,0.344-1.913,1.035-2.488
			s1.615-0.863,2.771-0.863c0.549,0,1.045,0.088,1.488,0.263c0.441,0.176,0.814,0.422,1.115,0.739s0.549,0.669,0.744,1.056
			c0.193,0.387,0.348,0.818,0.461,1.294l-1.904,0.635c-0.094-0.251-0.186-0.468-0.277-0.649c-0.094-0.182-0.217-0.378-0.373-0.59
			c-0.154-0.212-0.338-0.375-0.549-0.491c-0.213-0.115-0.447-0.173-0.705-0.173c-0.402,0-0.715,0.11-0.938,0.332
			c-0.221,0.222-0.332,0.533-0.332,0.937c0,0.397,0.213,0.755,0.635,1.071l2.539,1.903c0.283,0.226,0.527,0.441,0.729,0.649
			c0.201,0.209,0.398,0.45,0.59,0.725s0.338,0.58,0.438,0.917c0.098,0.337,0.148,0.698,0.148,1.081c0,1.084-0.346,1.913-1.037,2.488
			S112.522,17.948,111.366,17.948z"/>
		<path fill="#FFD600" d="M120.31,17.948c-0.615,0-1.148-0.106-1.602-0.317c-0.453-0.212-0.813-0.487-1.08-0.828
			s-0.484-0.776-0.65-1.309c-0.164-0.532-0.279-1.064-0.342-1.597s-0.102-1.152-0.113-1.859c-0.02-0.556-0.02-1.11,0-1.666
			c0.02-0.661,0.064-1.247,0.133-1.76c0.07-0.513,0.191-1.01,0.363-1.492s0.395-0.88,0.668-1.189
			c0.275-0.312,0.635-0.561,1.082-0.749c0.445-0.188,0.967-0.283,1.561-0.283c0.543,0,1.02,0.071,1.434,0.214
			c0.412,0.143,0.756,0.356,1.031,0.645c0.273,0.287,0.502,0.607,0.684,0.957s0.318,0.775,0.412,1.273
			c0.092,0.499,0.156,0.99,0.193,1.473c0.035,0.482,0.055,1.038,0.055,1.666v0.297h-5.078v0.635c0,0.086,0,0.222,0,0.407
			c-0.012,0.245-0.014,0.497-0.004,0.758c0.01,0.262,0.021,0.518,0.035,0.769c0.012,0.252,0.049,0.491,0.107,0.72
			c0.061,0.228,0.133,0.428,0.219,0.6s0.207,0.308,0.361,0.406c0.156,0.1,0.34,0.148,0.551,0.148c0.266,0,0.482-0.051,0.654-0.153
			s0.299-0.256,0.383-0.461c0.082-0.205,0.141-0.41,0.174-0.615c0.033-0.204,0.053-0.462,0.059-0.773v-0.535h2.52v0.506
			c-0.061,1.355-0.395,2.381-1.002,3.074C122.507,17.601,121.573,17.948,120.31,17.948z M119.06,10.154h2.52V9.391
			c-0.006-0.337-0.027-0.631-0.059-0.883c-0.033-0.251-0.092-0.502-0.174-0.753c-0.084-0.252-0.211-0.443-0.383-0.574
			c-0.172-0.134-0.383-0.199-0.635-0.199c-0.258,0-0.475,0.07-0.648,0.208c-0.176,0.139-0.305,0.339-0.387,0.6
			c-0.084,0.263-0.141,0.518-0.174,0.769s-0.053,0.552-0.061,0.902V10.154z"/>
	</g>
</g>
</svg>
